<svg xmlns="http://www.w3.org/2000/svg" xmlns:xlink="http://www.w3.org/1999/xlink" viewBox="0 0 44.48 49.82"><defs><style>.cls-1{fill:url(#linear-gradient);}.cls-2{fill:url(#linear-gradient-2);}.cls-3{fill:url(#linear-gradient-3);}.cls-4{opacity:0.55;fill:url(#linear-gradient-4);}.cls-5{fill:url(#radial-gradient);}.cls-6{fill:url(#linear-gradient-5);}.cls-7{fill:url(#radial-gradient-2);}.cls-8{fill:url(#linear-gradient-6);}</style><linearGradient id="linear-gradient" x1="37.48" y1="-33" x2="37.17" y2="44.89" gradientTransform="translate(-9.15 9.49) rotate(21.55)" gradientUnits="userSpaceOnUse"><stop offset="0" stop-color="#fbca32"/><stop offset="0.23" stop-color="#f9c02b"/><stop offset="0.62" stop-color="#f5a517"/><stop offset="1" stop-color="#ef8400"/></linearGradient><linearGradient id="linear-gradient-2" x1="30.62" y1="-22.36" x2="35.57" y2="48.78" gradientTransform="translate(-9.15 9.49) rotate(21.55)" gradientUnits="userSpaceOnUse"><stop offset="0" stop-color="#f9e94e"/><stop offset="0.2" stop-color="#fadf45"/><stop offset="0.55" stop-color="#fcc42c"/><stop offset="1" stop-color="#ff9804"/></linearGradient><linearGradient id="linear-gradient-3" x1="28.55" y1="-32.6" x2="38.21" y2="56.92" gradientTransform="translate(-9.15 9.49) rotate(21.55)" gradientUnits="userSpaceOnUse"><stop offset="0" stop-color="#ff9804"/><stop offset="0.45" stop-color="#fcc42c"/><stop offset="0.8" stop-color="#fadf45"/><stop offset="1" stop-color="#f9e94e"/></linearGradient><linearGradient id="linear-gradient-4" x1="31.36" y1="-20.65" x2="25.7" y2="18.69" gradientTransform="translate(-9.15 9.49) rotate(21.55)" gradientUnits="userSpaceOnUse"><stop offset="0" stop-color="#f7fc98"/><stop offset="1" stop-color="#f9e94e" stop-opacity="0"/></linearGradient><radialGradient id="radial-gradient" cx="37.45" cy="-19.51" r="4.76" gradientTransform="translate(-9.15 9.49) rotate(21.55)" gradientUnits="userSpaceOnUse"><stop offset="0" stop-color="#fffdff"/><stop offset="1" stop-color="#f7fc98" stop-opacity="0"/></radialGradient><linearGradient id="linear-gradient-5" x1="37.63" y1="-21.79" x2="37.23" y2="-16.63" gradientTransform="translate(-9.15 9.49) rotate(21.55)" gradientUnits="userSpaceOnUse"><stop offset="0" stop-color="#fbfcc8"/><stop offset="1" stop-color="#fffdff"/></linearGradient><radialGradient id="radial-gradient-2" cx="14.54" cy="-2.01" r="3.72" xlink:href="#radial-gradient"/><linearGradient id="linear-gradient-6" x1="14.67" y1="-3.79" x2="14.37" y2="0.24" xlink:href="#linear-gradient-5"/></defs><title>Asset 631</title><g id="Layer_2" data-name="Layer 2"><g id="layer_1-2" data-name="layer 1"><path class="cls-1" d="M33.61,2.88,29,1.05l-.31.79C20.08,1.48,11,8.2,6.8,18.81S4.65,40.54,11.18,46.15l-.31.79,4.61,1.82c9.8,3.88,21.81-3.26,26.81-15.93S43.41,6.75,33.61,2.88Z"/><path class="cls-2" d="M37.68,31c-5,12.67-17,19.8-26.81,15.93S-2.82,29.66,2.18,17,19.19-2.82,29,1.05,42.69,18.34,37.68,31Z"/><path class="cls-3" d="M32.57,29C29,38,20.46,43.09,13.48,40.33S3.73,28,7.3,19,19.41,4.91,26.39,7.66,36.13,20,32.57,29Z"/><path class="cls-4" d="M38.75,12.27c-1.63-5.2-5-9.34-9.75-11.22C19.19-2.82,7.19,4.31,2.18,17A29.13,29.13,0,0,0,.59,33.74C8.06,20.43,23.68,6.9,38.75,12.27Z"/><path class="cls-5" d="M37.29,6.85a4.76,4.76,0,1,0-6.18,2.68A4.77,4.77,0,0,0,37.29,6.85Z"/><polygon class="cls-6" points="31.72 7.99 32.01 5.47 29.97 3.96 32.49 4.25 34 2.21 33.71 4.73 35.74 6.24 33.23 5.95 31.72 7.99"/><path class="cls-7" d="M8.57,14.32a3.71,3.71,0,1,0-4.82,2.09A3.72,3.72,0,0,0,8.57,14.32Z"/><polygon class="cls-8" points="4.22 15.21 4.45 13.24 2.86 12.07 4.83 12.3 6 10.71 5.78 12.67 7.37 13.85 5.4 13.62 4.22 15.21"/></g></g></svg>