<svg xmlns="http://www.w3.org/2000/svg" xmlns:xlink="http://www.w3.org/1999/xlink" viewBox="0 0 55.07 44.5"><defs><style>.cls-1{fill:url(#radial-gradient);}.cls-2{fill:url(#linear-gradient);}.cls-3{fill:url(#linear-gradient-2);}.cls-4{fill:url(#linear-gradient-3);}.cls-5{fill:url(#linear-gradient-4);}.cls-6{fill:url(#radial-gradient-2);}.cls-7{fill:url(#linear-gradient-5);}</style><radialGradient id="radial-gradient" cx="27.54" cy="22.35" r="24.98" gradientUnits="userSpaceOnUse"><stop offset="0" stop-color="#ef50ab"/><stop offset="0.21" stop-color="#ea48a5"/><stop offset="0.54" stop-color="#de3295"/><stop offset="0.95" stop-color="#c90f7c"/><stop offset="1" stop-color="#c60a78"/></radialGradient><linearGradient id="linear-gradient" x1="27.54" y1="44.5" x2="27.54" y2="1.37" gradientUnits="userSpaceOnUse"><stop offset="0" stop-color="#c60a78" stop-opacity="0"/><stop offset="0.11" stop-color="#c70c79" stop-opacity="0.02"/><stop offset="0.23" stop-color="#ca127d" stop-opacity="0.07"/><stop offset="0.37" stop-color="#cf1c84" stop-opacity="0.17"/><stop offset="0.5" stop-color="#d62b8e" stop-opacity="0.3"/><stop offset="0.65" stop-color="#df3d9a" stop-opacity="0.46"/><stop offset="0.79" stop-color="#ea53a9" stop-opacity="0.67"/><stop offset="0.94" stop-color="#f76dba" stop-opacity="0.9"/><stop offset="1" stop-color="#fc78c1"/></linearGradient><linearGradient id="linear-gradient-2" x1="27.54" y1="44.49" x2="27.54" y2="1.37" gradientUnits="userSpaceOnUse"><stop offset="0" stop-color="#a00063"/><stop offset="0.01" stop-color="#a40567" stop-opacity="0.96"/><stop offset="0.07" stop-color="#be2882" stop-opacity="0.67"/><stop offset="0.13" stop-color="#d54599" stop-opacity="0.43"/><stop offset="0.19" stop-color="#e65baa" stop-opacity="0.24"/><stop offset="0.25" stop-color="#f26bb7" stop-opacity="0.11"/><stop offset="0.31" stop-color="#fa75be" stop-opacity="0.03"/><stop offset="0.37" stop-color="#fc78c1" stop-opacity="0"/></linearGradient><linearGradient id="linear-gradient-3" x1="6.86" y1="5.6" x2="13.99" y2="13.94" gradientUnits="userSpaceOnUse"><stop offset="0" stop-color="#fff"/><stop offset="0.18" stop-color="#f6d9ea" stop-opacity="0.84"/><stop offset="0.58" stop-color="#e078b5" stop-opacity="0.45"/><stop offset="1" stop-color="#c60a78" stop-opacity="0"/></linearGradient><linearGradient id="linear-gradient-4" x1="1099.51" y1="5.6" x2="1106.63" y2="13.94" gradientTransform="matrix(-1, 0, 0, 1, 1147.51, 0)" gradientUnits="userSpaceOnUse"><stop offset="0" stop-color="#fff"/><stop offset="0.19" stop-color="#f5d5e8" stop-opacity="0.83"/><stop offset="0.61" stop-color="#dd6eaf" stop-opacity="0.41"/><stop offset="1" stop-color="#c60a78" stop-opacity="0"/></linearGradient><radialGradient id="radial-gradient-2" cx="30.09" cy="97.3" r="10.34" gradientTransform="matrix(-0.85, 0, 0, 0.87, 36.33, -75.86)" gradientUnits="userSpaceOnUse"><stop offset="0" stop-color="#fffdff"/><stop offset="1" stop-color="#f7fc98" stop-opacity="0"/></radialGradient><linearGradient id="linear-gradient-5" x1="15.76" y1="5.87" x2="15.21" y2="13.02" gradientTransform="matrix(-1, 0, 0, 1, 26.17, 0)" gradientUnits="userSpaceOnUse"><stop offset="0" stop-color="#fbfcc8"/><stop offset="1" stop-color="#fffdff"/></linearGradient></defs><title>Asset 451</title><g id="Layer_2" data-name="Layer 2"><g id="layer_1-2" data-name="layer 1"><path class="cls-1" d="M55.07,16.2a15.7,15.7,0,0,1-6.13,12.51L29.61,43.78a3.38,3.38,0,0,1-4.15,0L6.14,28.71a15.91,15.91,0,0,1,3.8-27.3,15.83,15.83,0,0,1,17.6,3.86A15.92,15.92,0,0,1,55.07,16.2Z"/><path class="cls-2" d="M44.71,2.53A15.45,15.45,0,0,0,27.54,6.3,15.54,15.54,0,0,0,.67,17a15.34,15.34,0,0,0,6,12.21L25.47,43.79a3.39,3.39,0,0,0,4.14,0L48.42,29.18A15.53,15.53,0,0,0,44.71,2.53Z"/><path class="cls-3" d="M44.71,2.53A15.45,15.45,0,0,0,27.54,6.3,15.54,15.54,0,0,0,.67,17a15.34,15.34,0,0,0,6,12.21L25.47,43.79a3.39,3.39,0,0,0,4.14,0L48.42,29.18A15.53,15.53,0,0,0,44.71,2.53Z"/><path class="cls-4" d="M19.37,5.81c1.91,2.43-2.69,3.38-6.77,6.57s-6.1,7.43-8,5-.94-8,3.15-11.22S17.47,3.38,19.37,5.81Z"/><path class="cls-5" d="M35.49,5.81c-1.9,2.43,2.7,3.38,6.78,6.57s6.1,7.43,8,5,.93-8-3.15-11.22S37.4,3.38,35.49,5.81Z"/><ellipse class="cls-6" cx="10.65" cy="9.02" rx="8.83" ry="9.02"/><polygon class="cls-7" points="10.65 13.33 11.54 9.93 14.86 9.02 11.54 8.12 10.65 4.72 9.77 8.12 6.44 9.02 9.77 9.93 10.65 13.33"/></g></g></svg>